<svg xmlns="http://www.w3.org/2000/svg" viewBox="0 0 46.062 60.531"><path fill="#fff" d="M23.03.004c-4.635 0-8.406 3.77-8.406 8.406 0 2.702 1.294 5.086 3.28 6.625C7.65 17.37 0 26.543 0 37.505c0 12.72 10.308 23.03 23.03 23.03s23.03-10.31 23.03-23.03c0-7.326-3.448-13.842-8.78-18.063l-.5-1.78 1.344-1.595-4.47-2.594-.874 1.78-1.75.658c-.934-.347-1.89-.65-2.875-.874 1.978-1.54 3.25-3.924 3.25-6.625 0-4.635-3.74-8.406-8.375-8.406zm-.094 1.97c3.5 0 6.344 2.84 6.344 6.342 0 2.97-2.053 5.408-4.812 6.094v-3.687h1.156l.093-3.22h-5.25v3l1 .032-.03 3.938c-2.78-.673-4.845-3.17-4.845-6.157 0-3.5 2.843-6.343 6.344-6.343zm.157 16.437c10.477 0 18.97 8.53 18.97 19.032s-8.493 19-18.97 19-18.97-8.497-18.97-19 8.492-19.03 18.97-19.03zm-1.407 4.438v16.155h.03l8.22 8 2.563-1.968-8.22-8.03-.094.062v-14.22h-2.5z"/></svg>