<svg xmlns="http://www.w3.org/2000/svg" viewBox="0 0 55.938 61.844"><path fill="#fff" d="M26.06 0C18.554-.787 11.77 6.08 11.496 13.395c-.745 3.45-3.837 6.37-3.007 10.11-1.32 3.19 1.636 5.797 3.943 7.473 3.29 2.824 5.282 7.338 4.052 11.65-.398 3.19-3.6 4.804-6.54 4.705-2.552.268-5.363-.625-7.685.698C-1.02 50.004.562 55 4.025 55.69c3.89 1.633 7.672 3.543 11.672 4.938 2.94 1.672 6.25 1.055 9.48 1.128 4.93-.09 10.028.345 14.808-1.032 5.554-2.073 10.33-5.665 15.288-8.823 1.197-3.9-4.286-3.738-6.792-3.583-3.275-.033-7.054-.566-9.16-3.376-.936-4.327-.818-9.58 2.36-12.988 2.938-2.283 5.63-5.468 5.57-9.403.81-4.04-3.158-6.227-3.813-9.706 1.09-2.96-1.127-5.93-3.22-7.87C37.49 2.75 34.704-.134 30.89.045 29.28-.014 27.67.12 26.06 0zm9.782 11.97c.807 3.757 3.977 7.563 8.124 7.306 2.606 1.26.62 5.193-.757 6.857-2.162 1.583-4.257 3.3-5.136 5.946-1.536 3.15-2.197 6.87-1.008 10.245.57 3.658-2.76 7.865-6.648 6.997-4.09.43-8.845-.04-11.724-3.322-.54-4.102 1.506-8.81-1.348-12.396-.782-3.152-2.997-5.924-5.817-7.075-.87-2.15-1.443-7.422 1.344-7.567 1.698 1.787 3.778 3.388 6.018 1.437 4.78-1.218 10.134-1.976 13.85-5.483.86-1.124 1.598-2.595 3.1-2.95z"/></svg>