<svg xmlns="http://www.w3.org/2000/svg" viewBox="0 0 55.938 61.844"><path fill="#fff" d="M26.06 0c-7.506-.787-14.29 6.08-14.564 13.395-.745 3.45-3.837 6.37-3.007 10.11-1.32 3.19 1.63 5.797 3.94 7.473 3.29 2.824 5.28 7.338 4.05 11.65-.4 3.19-3.6 4.804-6.54 4.705-2.55.268-5.37-.625-7.69.698C-1.02 50.01.56 55 4.02 55.69c3.89 1.633 7.67 3.543 11.67 4.938 2.94 1.672 6.25 1.055 9.48 1.128 4.93-.09 10.03.345 14.81-1.032 5.556-2.073 10.33-5.665 15.29-8.823 1.197-3.9-4.286-3.73-6.792-3.58-3.273-.03-7.052-.56-9.16-3.37-.934-4.324-.816-9.58 2.36-12.99 2.94-2.28 5.63-5.47 5.57-9.4.81-4.04-3.156-6.225-3.81-9.704 1.09-2.96-1.128-5.93-3.22-7.87-2.73-2.235-5.517-5.12-9.33-4.94-1.61-.06-3.22.075-4.83-.045zm9.782 11.97c.807 3.757 3.977 7.563 8.124 7.306 2.606 1.26.62 5.193-.757 6.857-2.17 1.583-4.26 3.3-5.14 5.946-1.54 3.15-2.2 6.87-1.01 10.24.57 3.66-2.76 7.86-6.65 6.99-4.09.43-8.85-.04-11.728-3.32-.54-4.104 1.506-8.81-1.348-12.398-.783-3.153-2.998-5.925-5.818-7.076-.87-2.15-1.444-7.42 1.343-7.567 1.7 1.79 3.78 3.39 6.02 1.44 4.78-1.22 10.132-1.977 13.85-5.484.86-1.124 1.596-2.595 3.1-2.95z"/></svg>