<!-- Created with Inkscape (http://www.inkscape.org/) -->
<svg xmlns:rdf="http://www.w3.org/1999/02/22-rdf-syntax-ns#" xmlns="http://www.w3.org/2000/svg" version="1.1" xmlns:cc="http://creativecommons.org/ns#" xmlns:dc="http://purl.org/dc/elements/1.1/" viewBox="0 0 46.062 60.531">
 <metadata>
  <rdf:RDF>
   <cc:Work rdf:about="">
    <dc:format>image/svg+xml</dc:format>
    <dc:type rdf:resource="http://purl.org/dc/dcmitype/StillImage"/>
    <dc:title/>
   </cc:Work>
  </rdf:RDF>
 </metadata>
 <g transform="translate(-321.25,-419.15625)">
  <path fill="#ffffff" d="m344.28,419.16c-4.6352,0-8.4062,3.771-8.4062,8.4062,0,2.7017,1.2946,5.0861,3.2812,6.625-10.255,2.335-17.906,11.508-17.906,22.469,0,12.722,10.309,23.031,23.031,23.031s23.031-10.309,23.031-23.031c0-7.3251-3.4488-13.841-8.7812-18.062l-0.5-1.7812,1.3438-1.5938-4.4688-2.5938-0.875,1.7812-1.75,0.65625c-0.93396-0.34749-1.8886-0.64962-2.875-0.875,1.9778-1.5389,3.25-3.9233,3.25-6.625,0-4.6352-3.7398-8.4062-8.375-8.4062zm-0.0937,1.9688c3.5011,0,6.3438,2.8427,6.3438,6.3438,0,2.9711-2.0532,5.4073-4.8125,6.0938v-3.6875h1.1562l0.0937-3.2188h-5.25v3l1,0.0312-0.0312,3.9375c-2.7802-0.6726-4.8438-3.1703-4.8438-6.1562,0-3.5011,2.8427-6.3438,6.3438-6.3438zm0.15625,16.438c10.477,0,18.969,8.528,18.969,19.031s-8.4917,19-18.969,19-18.969-8.4967-18.969-19,8.4917-19.031,18.969-19.031zm-1.4063,4.4375,0,16.125,0,0.0312,0.0312,0,8.2188,8,2.5625-1.9688-8.2188-8.0312-0.0937,0.0625,0-14.219-2.5,0z"/>
 </g>
</svg>
