<!-- Created with Inkscape (http://www.inkscape.org/) -->
<svg xmlns:rdf="http://www.w3.org/1999/02/22-rdf-syntax-ns#" xmlns="http://www.w3.org/2000/svg" version="1.1" xmlns:cc="http://creativecommons.org/ns#" xmlns:dc="http://purl.org/dc/elements/1.1/" viewBox="0 0 55.938 61.844">
 <metadata>
  <rdf:RDF>
   <cc:Work rdf:about="">
    <dc:format>image/svg+xml</dc:format>
    <dc:type rdf:resource="http://purl.org/dc/dcmitype/StillImage"/>
    <dc:title/>
   </cc:Work>
  </rdf:RDF>
 </metadata>
 <g transform="translate(-157.96875,-242)">
  <path fill="#ffffff" d="m184.03,242c-7.5081-0.78686-14.293,6.0801-14.566,13.395-0.74486,3.4492-3.8373,6.3713-3.0076,10.111-1.3186,3.1904,1.6366,5.7961,3.9434,7.4718,3.2891,2.8241,5.2812,7.3383,4.0506,11.65-0.39804,3.189-3.6004,4.8044-6.5389,4.7051-2.5525,0.26801-5.3639-0.62526-7.6861,0.69777-3.2764,1.9723-1.6944,6.9671,1.7682,7.6591,3.8913,1.6329,7.6721,3.5429,11.672,4.9382,2.9388,1.6725,6.2491,1.0552,9.4794,1.1278,4.9296-0.0893,10.029,0.34558,14.809-1.0319,5.5537-2.0728,10.33-5.6645,15.288-8.8226,1.1965-3.901-4.2863-3.7397-6.792-3.5845-3.276-0.0331-7.0557-0.56574-9.1603-3.3754-0.9372-4.3283-0.81884-9.5814,2.3578-12.989,2.9394-2.2835,5.6315-5.4681,5.572-9.4033,0.80887-4.0376-3.159-6.2262-3.8135-9.7054,1.0883-2.9608-1.1277-5.9307-3.22-7.8711-2.7278-2.2207-5.5131-5.1057-9.3267-4.9267-1.6095-0.0606-3.2218,0.0746-4.8298-0.0455zm9.7812,11.969c0.80686,3.7578,3.9766,7.5637,8.1231,7.3074,2.6066,1.2586,0.6209,5.1929-0.75612,6.8571-2.1617,1.5825-4.256,3.2989-5.1351,5.9451-1.5362,3.1502-2.1972,6.8723-1.0085,10.246,0.57138,3.6589-2.759,7.8651-6.6481,6.9978-4.0896,0.43057-8.8447-0.0415-11.724-3.3224-0.53867-4.102,1.5067-8.8094-1.3476-12.396-0.78247-3.1518-2.997-5.9241-5.8175-7.0748-0.86727-2.1502-1.4412-7.4211,1.3455-7.566,1.6977,1.7869,3.7782,3.3883,6.0177,1.4368,4.7792-1.2175,10.134-1.9764,13.85-5.4833,0.86066-1.1239,1.5984-2.5943,3.1004-2.9482z"/>
 </g>
</svg>
